<svg width="46" height="45" viewBox="0 0 46 45" fill="none" xmlns="http://www.w3.org/2000/svg">
<path d="M23 26.7188C22.5828 26.7188 22.175 26.595 21.8281 26.3633C21.4812 26.1315 21.2108 25.802 21.0512 25.4166C20.8915 25.0312 20.8498 24.607 20.9312 24.1979C21.0125 23.7887 21.2134 23.4128 21.5084 23.1178C21.8034 22.8228 22.1793 22.6219 22.5885 22.5405C22.9977 22.4591 23.4218 22.5009 23.8072 22.6606C24.1927 22.8202 24.5221 23.0906 24.7539 23.4375C24.9857 23.7844 25.1094 24.1922 25.1094 24.6094C25.1094 25.1688 24.8871 25.7053 24.4916 26.1009C24.096 26.4965 23.5594 26.7188 23 26.7188ZM41.2813 22.5C41.2813 26.1157 40.2091 29.6502 38.2003 32.6565C36.1915 35.6629 33.3364 38.006 29.9959 39.3897C26.6555 40.7733 22.9797 41.1354 19.4335 40.43C15.8873 39.7246 12.6299 37.9835 10.0732 35.4268C7.51653 32.8701 5.77541 29.6127 5.07002 26.0665C4.36463 22.5203 4.72666 18.8445 6.11033 15.5041C7.49399 12.1636 9.83715 9.30847 12.8435 7.2997C15.8498 5.29093 19.3843 4.21875 23 4.21875C27.8469 4.22387 32.4939 6.15157 35.9211 9.57886C39.3484 13.0061 41.2761 17.6531 41.2813 22.5ZM7.53125 22.5V22.558C11.8504 18.8892 17.333 16.875 23 16.875C28.667 16.875 34.1496 18.8892 38.4688 22.558V22.5C38.4688 18.3974 36.839 14.4629 33.9381 11.5619C31.0371 8.66099 27.1026 7.03125 23 7.03125C18.8974 7.03125 14.9629 8.66099 12.0619 11.5619C9.16099 14.4629 7.53125 18.3974 7.53125 22.5ZM19.3965 37.5434L16.3994 29.5312H9.22402C10.2433 31.52 11.6798 33.2653 13.4354 34.6481C15.191 36.0308 17.2243 37.0184 19.3965 37.5434ZM23 37.9688C23.1459 37.9688 23.2918 37.9688 23.4377 37.9688L26.9656 28.5521C27.1681 28.0163 27.5287 27.5546 27.9996 27.2284C28.4705 26.9023 29.0295 26.7269 29.6023 26.7258H37.8852C37.952 26.4955 38.0117 26.2617 38.0609 26.0227C36.097 24.0189 33.7531 22.4271 31.1664 21.3404C28.5797 20.2537 25.8022 19.694 22.9965 19.694C20.1908 19.694 17.4133 20.2537 14.8266 21.3404C12.2399 22.4271 9.89595 24.0189 7.93203 26.0227C7.98652 26.2582 8.04629 26.492 8.10781 26.7258H16.3994C16.9724 26.7273 17.5314 26.903 18.0023 27.2295C18.4732 27.556 18.8337 28.0178 19.0361 28.5539L22.5518 37.9688C22.7029 37.9687 22.8506 37.9688 23 37.9688ZM36.776 29.5312H29.6006L26.5965 37.5451C28.7702 37.021 30.805 36.0336 32.5619 34.6505C34.3188 33.2674 35.7562 31.5212 36.776 29.5312Z" fill="#1A9DF4"/>
</svg>
